<svg width="20" height="14" viewBox="0 0 20 14" fill="none" xmlns="http://www.w3.org/2000/svg">
<path d="M0 13.0048C0 13.5544 0.445564 14 0.995193 14H9.00481C9.55444 14 10 13.5544 10 13.0048C10 12.4552 9.55444 12.0096 9.00481 12.0096H0.995193C0.445564 12.0096 0 12.4552 0 13.0048Z" fill="white"/>
<path d="M0 7.00024C0 7.54987 0.445564 7.99544 0.995193 7.99544H19.0048C19.5544 7.99544 20 7.54987 20 7.00024C20 6.45061 19.5544 6.00505 19.0048 6.00505H0.995193C0.445564 6.00505 0 6.45061 0 7.00024Z" fill="white"/>
<path d="M0.995193 1.99039C0.445564 1.99039 0 1.54482 0 0.995193C0 0.445562 0.445564 0 0.995193 0H13.0048C13.5544 0 14 0.445562 14 0.995193C14 1.54482 13.5544 1.99039 13.0048 1.99039H0.995193Z" fill="white"/>
</svg>
